<svg id="Layer_1" data-name="Layer 1" xmlns="http://www.w3.org/2000/svg" viewBox="0 0 24 24"><defs><style>.cls-1{fill:#0057ab;}.cls-2{fill:#fff;}</style></defs><title>Icon-sound-circle2_v1</title><circle class="cls-1" cx="12" cy="12" r="10"/><path class="cls-2" d="M13,9.46v.63a2.2,2.2,0,0,1,0,3.82v.63a2.77,2.77,0,0,0,0-5.08Z"/><path class="cls-2" d="M13,7.13V8.27a3.89,3.89,0,0,1,0,7.46v1.14a5,5,0,0,0,0-9.74Z"/><path class="cls-2" d="M12,15V7.75a.5.5,0,0,0-.35-.48.51.51,0,0,0-.56.19L9.92,9.13,9.16,10H7.28a.31.31,0,0,0-.28.33v3.34a.31.31,0,0,0,.28.33H9.16l.76.87,1.17,1.67a.52.52,0,0,0,.41.21l.15,0a.5.5,0,0,0,.35-.48V15S12,15,12,15Z"/></svg>