<svg id="Layer_1" data-name="Layer 1" xmlns="http://www.w3.org/2000/svg" viewBox="0 0 24 24"><defs><style>.cls-1{fill:#0057ab;}.cls-2{fill:#fff;}</style></defs><title>Icon-sound-circle_v1</title><circle class="cls-1" cx="12" cy="12" r="10"/><path class="cls-2" d="M13.56,8.44v.88a3.09,3.09,0,0,1,0,5.36v.88a3.88,3.88,0,0,0,0-7.12Z"/><path class="cls-2" d="M11.76,6.39a.39.39,0,0,0-.42.08l-.93.9L8,9.67H5.39a.38.38,0,0,0-.39.39v3.88a.38.38,0,0,0,.39.39H8l2.38,2.31.93.89a.39.39,0,0,0,.42.08.38.38,0,0,0,.24-.36V6.75A.38.38,0,0,0,11.76,6.39Z"/><path class="cls-2" d="M13.56,5.18v1.6a5.45,5.45,0,0,1,0,10.44v1.6a7,7,0,0,0,0-13.64Z"/></svg>