<?xml version="1.0" encoding="utf-8"?>
<!-- Generator: Adobe Illustrator 22.1.0, SVG Export Plug-In . SVG Version: 6.00 Build 0)  -->
<svg version="1.1" id="Layer_1" xmlns="http://www.w3.org/2000/svg" xmlns:xlink="http://www.w3.org/1999/xlink" x="0px" y="0px"
	 viewBox="0 0 24 24" style="enable-background:new 0 0 24 24;" xml:space="preserve">
<style type="text/css">
	.st0{fill:#00A9CE;}
	.st1{fill:#FFFFFF;}
</style>
<title>Icon-sound-circle_v1</title>
<circle class="st0" cx="12" cy="12" r="10"/>
<path class="st1" d="M13.6,8.4v0.9c1.5,0.8,2,2.7,1.1,4.2c-0.3,0.5-0.7,0.9-1.1,1.1v0.9c2-0.9,2.9-3.1,2-5.1
	C15.2,9.6,14.5,8.8,13.6,8.4z"/>
<path class="st1" d="M11.8,6.4c-0.1-0.1-0.3,0-0.4,0.1l-0.9,0.9L8,9.7H5.4C5.2,9.7,5,9.8,5,10c0,0,0,0,0,0v3.9
	c0,0.2,0.2,0.4,0.4,0.4c0,0,0,0,0,0H8l2.4,2.3l0.9,0.9c0.1,0.1,0.3,0.1,0.4,0.1c0.1-0.1,0.2-0.2,0.2-0.4V6.8
	C12,6.6,11.9,6.5,11.8,6.4z"/>
<path class="st1" d="M13.6,5.2v1.6c2.9,0.9,4.5,3.9,3.7,6.8c-0.5,1.8-1.9,3.1-3.7,3.7v1.6c3.8-0.9,6.1-4.6,5.2-8.4
	C18.2,7.8,16.2,5.8,13.6,5.2z"/>
</svg>
