<?xml version="1.0" encoding="utf-8"?>
<!-- Generator: Adobe Illustrator 22.1.0, SVG Export Plug-In . SVG Version: 6.00 Build 0)  -->
<svg version="1.1" id="Layer_1" xmlns="http://www.w3.org/2000/svg" xmlns:xlink="http://www.w3.org/1999/xlink" x="0px" y="0px"
	 viewBox="0 0 24 24" style="enable-background:new 0 0 24 24;" xml:space="preserve">
<style type="text/css">
	.st0{fill:#009639;}
</style>
<title>Icon-Sound_v1</title>
<g>
	<path class="st0" d="M14,7.4v1.1c1.2,0.7,2,2,2,3.4s-0.8,2.7-2,3.4v1.1c1.8-0.8,3-2.5,3-4.6S15.8,8.2,14,7.4z"/>
	<path class="st0" d="M11.7,4.8c-0.2-0.1-0.4,0-0.5,0.1L9.9,6.1L6.9,9H6H4H3.5C3.2,9,3,9.2,3,9.5V10v4v0.5C3,14.8,3.2,15,3.5,15H4h2
		h0.9l3.1,3l1.2,1.1c0.1,0.1,0.2,0.1,0.3,0.1c0.1,0,0.1,0,0.2,0c0.2-0.1,0.3-0.3,0.3-0.5V5.2C12,5,11.9,4.9,11.7,4.8z"/>
	<path class="st0" d="M14,3.2v2.1c2.9,0.9,5,3.5,5,6.7s-2.1,5.8-5,6.7v2.1c4-0.9,7-4.5,7-8.8S18,4.1,14,3.2z"/>
</g>
</svg>
